<svg xmlns="http://www.w3.org/2000/svg" xmlns:xlink="http://www.w3.org/1999/xlink" width="1200" zoomAndPan="magnify" viewBox="0 0 900 472.499986" height="630" preserveAspectRatio="xMidYMid meet" version="1.0"><defs><clipPath id="dddac7ff00"><path d="M 0.476562 0 L 899.523438 0 L 899.523438 472 L 0.476562 472 Z M 0.476562 0 " clip-rule="nonzero"/></clipPath><clipPath id="a6d825aa68"><path d="M 304.421875 159 L 593.507812 159 L 593.507812 309 L 304.421875 309 Z M 304.421875 159 " clip-rule="nonzero"/></clipPath><clipPath id="1704580159"><path d="M 408.929688 167.644531 C 405.433594 173.800781 401.578125 179.652344 397.113281 185.113281 C 389.039062 181.011719 380.519531 179.929688 371.671875 180.789062 C 358.492188 182.007812 347.449219 187.722656 338.65625 198.066406 C 335.464844 200.976562 333.273438 204.664062 331.441406 208.601562 C 329.804688 210.597656 329.058594 213.066406 328.253906 215.480469 C 323.507812 229.925781 323.621094 244.125 330.667969 257.851562 C 332.277344 262.09375 334.578125 265.835938 337.714844 268.996094 C 343.707031 276.734375 351.308594 281.976562 360.40625 284.886719 C 370.726562 288.546875 381.078125 288.796875 391.480469 285.21875 C 400.386719 282.808594 408.042969 277.980469 413.925781 270.773438 C 425.132812 257.019531 432.734375 240.742188 441.917969 225.574219 C 445.191406 220.191406 448.464844 214.8125 451.683594 209.40625 C 458.5625 197.898438 464.75 185.863281 475.015625 176.988281 C 487.472656 166.230469 501.648438 160.128906 517.824219 159.410156 C 537.273438 158.523438 554.554688 164.679688 569.039062 178.15625 C 587.515625 195.320312 595.507812 217.085938 592.980469 242.625 C 591.066406 261.675781 582.800781 277.648438 568.957031 290.238281 C 553.058594 304.6875 534.441406 311.257812 513.523438 308.152344 C 493.6875 305.210938 476.570312 296.285156 464.140625 279.203125 C 467.941406 272.546875 472.492188 266.390625 476.820312 260.070312 C 479.675781 264.921875 483.503906 268.886719 487.363281 272.824219 C 506.753906 292.625 537.023438 292.734375 556.804688 273.351562 C 578.472656 252.136719 578.195312 215.507812 556.359375 194.515625 C 535.273438 174.21875 500.097656 176.378906 482.089844 199.617188 C 477.84375 205.082031 474.765625 211.265625 471.078125 217.085938 C 456.039062 240.683594 444.164062 266.445312 426.519531 288.296875 C 419.554688 294.371094 412.230469 299.804688 403.742188 303.355469 C 382.992188 312.035156 362.683594 310.34375 342.734375 300.527344 C 341.152344 299.472656 339.601562 298.363281 338.019531 297.308594 C 323.648438 287.769531 313.910156 274.40625 308.082031 257.824219 C 307.777344 256.519531 307.472656 255.214844 307.140625 253.914062 C 297.402344 216.617188 316.183594 177.851562 350.945312 164.207031 C 370.671875 156.441406 390.09375 157.605469 408.929688 167.671875 " clip-rule="nonzero"/></clipPath><clipPath id="be4c386ea4"><path d="M 435.257812 150.589844 L 602 150.589844 L 602 318 L 435.257812 318 Z M 435.257812 150.589844 " clip-rule="nonzero"/></clipPath><clipPath id="a1881a40b2"><path d="M 464.140625 279.203125 C 476.570312 296.257812 493.6875 305.210938 513.523438 308.152344 C 534.441406 311.257812 553.085938 304.6875 568.957031 290.238281 C 582.800781 277.621094 591.09375 261.648438 592.980469 242.625 C 595.507812 217.058594 587.515625 195.292969 569.066406 178.15625 C 554.554688 164.679688 537.300781 158.523438 517.824219 159.382812 C 501.648438 160.101562 487.472656 166.203125 475.042969 176.988281 C 464.75 185.863281 458.589844 197.898438 451.710938 209.40625 C 448.464844 214.8125 445.191406 220.164062 441.945312 225.546875 C 439.726562 224.019531 437.535156 222.46875 435.316406 220.941406 C 438.007812 214.121094 442.332031 208.269531 445.96875 202.03125 C 451.820312 191.910156 457.398438 181.511719 465.886719 173.386719 C 478.925781 160.851562 494.046875 153.171875 511.886719 151.203125 C 534.277344 148.761719 554.335938 154.613281 571.757812 169.253906 C 588.679688 183.421875 598.53125 201.917969 601.136719 224.519531 C 603.578125 245.59375 598.863281 264.867188 587.15625 282.085938 C 574.53125 300.636719 557.332031 312.394531 535.71875 316.332031 C 519.847656 319.242188 504.230469 317.609375 489.21875 310.953125 C 480.785156 307.210938 473.433594 301.941406 466.554688 295.839844 C 465.582031 294.980469 464.804688 293.84375 464.058594 292.789062 C 459.175781 285.886719 459.203125 285.886719 464.140625 279.203125 " clip-rule="nonzero"/></clipPath><clipPath id="de8f14e424"><path d="M 426.546875 180.039062 L 572.949219 180.039062 L 572.949219 293.703125 L 426.546875 293.703125 Z M 426.546875 180.039062 " clip-rule="nonzero"/></clipPath><clipPath id="dd843653ac"><path d="M 426.546875 288.296875 C 444.164062 266.445312 456.039062 240.683594 471.078125 217.058594 C 474.765625 211.265625 477.84375 205.050781 482.089844 199.589844 C 500.125 176.378906 535.273438 174.21875 556.359375 194.488281 C 578.195312 215.507812 578.5 252.136719 556.832031 273.324219 C 537.023438 292.707031 506.753906 292.597656 487.363281 272.824219 C 483.503906 268.886719 479.703125 264.894531 476.820312 260.070312 C 481.121094 252.609375 481.089844 252.636719 486.003906 259.375 C 495.15625 271.855469 507.03125 279.285156 522.347656 279.007812 C 534.082031 278.785156 543.957031 273.710938 552.363281 264.976562 C 564.792969 252.054688 568.152344 230.648438 560.023438 214.175781 C 546.371094 186.472656 510.445312 180.734375 490.246094 203.140625 C 484.003906 210.070312 480.039062 218.640625 475.265625 226.597656 C 464.613281 244.429688 454.097656 262.371094 443.359375 280.171875 C 440.503906 284.914062 437.421875 289.574219 433.09375 293.09375 C 430.902344 291.488281 428.738281 289.878906 426.546875 288.269531 " clip-rule="nonzero"/></clipPath><clipPath id="9110c9559c"><path d="M 296 150 L 413.34375 150 L 413.34375 262.871094 L 296 262.871094 Z M 296 150 " clip-rule="nonzero"/></clipPath><clipPath id="89644c4328"><path d="M 408.929688 167.644531 C 390.09375 157.605469 370.644531 156.441406 350.945312 164.207031 C 316.183594 177.851562 297.402344 216.617188 307.167969 253.914062 C 307.5 255.214844 307.777344 256.519531 308.082031 257.824219 C 305.335938 258.570312 304.144531 261.980469 301.121094 262.230469 C 295.847656 248.949219 294.878906 235.113281 297.152344 221.136719 C 303.0625 184.867188 327.949219 158.523438 362.625 151.757812 C 378.828125 148.59375 394.449219 150.894531 409.320312 158.496094 C 413.980469 160.878906 414.089844 161.265625 410.929688 165.59375 C 410.34375 166.371094 409.597656 166.980469 408.929688 167.671875 " clip-rule="nonzero"/></clipPath><clipPath id="4754443b61"><path d="M 339 288.214844 L 433.207031 288.214844 L 433.207031 318 L 339 318 Z M 339 288.214844 " clip-rule="nonzero"/></clipPath><clipPath id="c933322db5"><path d="M 426.546875 288.296875 C 428.710938 289.90625 430.902344 291.515625 433.066406 293.121094 C 423.800781 303.023438 412.84375 310.121094 400.109375 314.113281 C 380.132812 320.382812 360.683594 318.773438 341.820312 309.566406 C 340.847656 309.09375 339.820312 308.789062 339.183594 307.847656 C 339.628906 305.019531 342.597656 303.519531 342.734375 300.527344 C 362.683594 310.371094 382.992188 312.0625 403.742188 303.382812 C 412.230469 299.804688 419.585938 294.371094 426.546875 288.324219 " clip-rule="nonzero"/></clipPath><clipPath id="4b31c65ef8"><path d="M 390.039062 220.414062 L 442 220.414062 L 442 285.46875 L 390.039062 285.46875 Z M 390.039062 220.414062 " clip-rule="nonzero"/></clipPath><clipPath id="436d748240"><path d="M 435.316406 220.941406 C 437.507812 222.46875 439.726562 224.019531 441.917969 225.546875 C 432.734375 240.714844 425.132812 257.019531 413.925781 270.773438 C 408.042969 277.953125 400.386719 282.78125 391.480469 285.21875 C 391.257812 282.417969 391.925781 279.535156 390.675781 276.84375 C 399.582031 272.851562 407.292969 267.25 412.539062 258.625 C 419.554688 247.117188 426.324219 235.417969 433.234375 223.824219 C 433.84375 222.800781 434.621094 221.882812 435.316406 220.941406 " clip-rule="nonzero"/></clipPath><clipPath id="cc3dda4ce5"><path d="M 301 257.40625 L 342.789062 257.40625 L 342.789062 308 L 301 308 Z M 301 257.40625 " clip-rule="nonzero"/></clipPath><clipPath id="d97e221d29"><path d="M 342.734375 300.527344 C 342.597656 303.519531 339.628906 305.019531 339.183594 307.847656 C 334.46875 306.101562 330.527344 302.964844 326.753906 299.75 C 315.574219 290.265625 306.808594 278.871094 301.675781 264.699219 C 301.398438 263.921875 301.285156 263.0625 301.089844 262.230469 C 304.144531 261.980469 305.335938 258.570312 308.082031 257.824219 C 313.910156 274.40625 323.648438 287.769531 338.019531 297.335938 C 339.601562 298.390625 341.152344 299.472656 342.734375 300.527344 " clip-rule="nonzero"/></clipPath><clipPath id="e9a00b792b"><path d="M 338 180.707031 L 372 180.707031 L 372 208 L 338 208 Z M 338 180.707031 " clip-rule="nonzero"/></clipPath><clipPath id="ba9ae0902a"><path d="M 338.65625 198.066406 C 347.449219 187.722656 358.492188 182.007812 371.671875 180.789062 C 371.671875 183.671875 371.671875 186.527344 371.671875 189.414062 C 359.242188 191.4375 349.117188 197.566406 341.375 207.882812 C 339.433594 206.910156 340.042969 205.050781 339.933594 203.445312 C 339.792969 201.585938 340.320312 199.535156 338.65625 198.066406 " clip-rule="nonzero"/></clipPath><clipPath id="5eff717508"><path d="M 360 276 L 392 276 L 392 288 L 360 288 Z M 360 276 " clip-rule="nonzero"/></clipPath><clipPath id="b851e66a19"><path d="M 390.675781 276.84375 C 391.925781 279.535156 391.257812 282.417969 391.480469 285.21875 C 381.105469 288.796875 370.726562 288.546875 360.40625 284.859375 C 360.40625 281.976562 360.40625 279.089844 360.40625 276.207031 C 364.042969 276.347656 367.371094 278.011719 370.976562 278.535156 C 377.71875 279.535156 384.15625 278.039062 390.675781 276.84375 " clip-rule="nonzero"/></clipPath><clipPath id="cdd0cb25cc"><path d="M 324.980469 208.101562 L 333.882812 208.101562 L 333.882812 258 L 324.980469 258 Z M 324.980469 208.101562 " clip-rule="nonzero"/></clipPath><clipPath id="dbf10fc39e"><path d="M 330.667969 257.851562 C 323.621094 244.125 323.507812 229.925781 328.253906 215.480469 C 329.058594 213.066406 329.804688 210.597656 331.441406 208.601562 C 332.886719 212.234375 331.941406 216.035156 332.109375 219.75 C 332.246094 222.078125 332.054688 224.378906 333.605469 226.320312 C 333.578125 230.230469 333.550781 234.140625 333.523438 238.023438 C 331.859375 238.855469 332.191406 240.464844 332.164062 241.878906 C 332.136719 245.789062 332.164062 249.699219 332.164062 253.609375 C 332.164062 255.214844 332.21875 256.824219 330.695312 257.851562 " clip-rule="nonzero"/></clipPath><clipPath id="cdb0369240"><path d="M 337.296875 257.40625 L 360.601562 257.40625 L 360.601562 285 L 337.296875 285 Z M 337.296875 257.40625 " clip-rule="nonzero"/></clipPath><clipPath id="63e97d4971"><path d="M 360.40625 276.207031 C 360.40625 279.089844 360.40625 282.003906 360.40625 284.859375 C 351.308594 281.976562 343.707031 276.707031 337.714844 268.996094 C 338.546875 266.640625 338.519531 264.199219 338.546875 261.734375 C 338.546875 260.316406 338.183594 258.710938 339.847656 257.878906 C 343.984375 264.753906 349.585938 270.023438 356.441406 273.824219 C 357.800781 274.570312 359.074219 275.402344 360.40625 276.207031 " clip-rule="nonzero"/></clipPath><clipPath id="dbd887085a"><path d="M 371.558594 180.039062 L 397.582031 180.039062 L 397.582031 192 L 371.558594 192 Z M 371.558594 180.039062 " clip-rule="nonzero"/></clipPath><clipPath id="0086506ff9"><path d="M 371.671875 189.414062 C 371.671875 186.527344 371.671875 183.671875 371.671875 180.789062 C 380.519531 179.929688 389.039062 181.011719 397.113281 185.085938 C 396.863281 185.78125 396.722656 186.5 396.363281 187.140625 C 393.589844 192.40625 393.53125 192.601562 388.039062 190.882812 C 382.628906 189.191406 377.136719 189.523438 371.671875 189.414062 " clip-rule="nonzero"/></clipPath><clipPath id="87f601ac5d"><path d="M 331.136719 198 L 341.402344 198 L 341.402344 226.597656 L 331.136719 226.597656 Z M 331.136719 198 " clip-rule="nonzero"/></clipPath><clipPath id="3881f03d01"><path d="M 333.605469 226.320312 C 332.054688 224.378906 332.21875 222.078125 332.109375 219.75 C 331.914062 216.035156 332.859375 212.234375 331.441406 208.601562 C 333.273438 204.664062 335.464844 200.976562 338.65625 198.066406 C 340.320312 199.535156 339.792969 201.585938 339.90625 203.445312 C 340.042969 205.050781 339.40625 206.9375 341.347656 207.882812 C 337.769531 213.566406 335.300781 219.777344 333.578125 226.320312 " clip-rule="nonzero"/></clipPath><clipPath id="e8af0425d9"><path d="M 330.445312 238 L 340 238 L 340 269 L 330.445312 269 Z M 330.445312 238 " clip-rule="nonzero"/></clipPath><clipPath id="c5290a2e99"><path d="M 339.847656 257.878906 C 338.183594 258.710938 338.546875 260.316406 338.546875 261.734375 C 338.546875 264.199219 338.546875 266.640625 337.714844 268.996094 C 334.578125 265.835938 332.277344 262.09375 330.695312 257.851562 C 332.21875 256.824219 332.164062 255.214844 332.164062 253.609375 C 332.164062 249.699219 332.136719 245.789062 332.164062 241.878906 C 332.191406 240.464844 331.859375 238.855469 333.523438 238.023438 C 333.636719 245.34375 336.519531 251.695312 339.847656 257.878906 " clip-rule="nonzero"/></clipPath><clipPath id="cb402cbc6a"><path d="M 542 257.40625 L 542.820312 257.40625 L 542.820312 258.765625 L 542 258.765625 Z M 542 257.40625 " clip-rule="nonzero"/></clipPath><clipPath id="9780a7fc7e"><path d="M 542.128906 258.378906 C 542.320312 258.210938 542.542969 258.015625 542.738281 257.851562 C 542.542969 258.015625 542.320312 258.210938 542.128906 258.378906 " clip-rule="nonzero"/></clipPath></defs><g clip-path="url(#dddac7ff00)"><path fill="#ffffff" d="M 0.476562 0 L 899.523438 0 L 899.523438 472 L 0.476562 472 Z M 0.476562 0 " fill-opacity="1" fill-rule="nonzero"/><path fill="#a0d995" d="M 0.476562 0 L 899.523438 0 L 899.523438 472 L 0.476562 472 Z M 0.476562 0 " fill-opacity="1" fill-rule="nonzero"/></g><g clip-path="url(#a6d825aa68)"><g clip-path="url(#1704580159)"><path fill="#0b2d11" d="M 292.074219 146.488281 L 605.855469 146.488281 L 605.855469 321.765625 L 292.074219 321.765625 Z M 292.074219 146.488281 " fill-opacity="1" fill-rule="nonzero"/></g></g><g clip-path="url(#be4c386ea4)"><g clip-path="url(#a1881a40b2)"><path fill="#ffcb28" d="M 292.074219 146.488281 L 605.855469 146.488281 L 605.855469 321.765625 L 292.074219 321.765625 Z M 292.074219 146.488281 " fill-opacity="1" fill-rule="nonzero"/></g></g><g clip-path="url(#de8f14e424)"><g clip-path="url(#dd843653ac)"><path fill="#ffcb28" d="M 292.074219 146.488281 L 605.855469 146.488281 L 605.855469 321.765625 L 292.074219 321.765625 Z M 292.074219 146.488281 " fill-opacity="1" fill-rule="nonzero"/></g></g><g clip-path="url(#9110c9559c)"><g clip-path="url(#89644c4328)"><path fill="#a1c8d4" d="M 292.074219 146.488281 L 605.855469 146.488281 L 605.855469 321.765625 L 292.074219 321.765625 Z M 292.074219 146.488281 " fill-opacity="1" fill-rule="nonzero"/></g></g><g clip-path="url(#4754443b61)"><g clip-path="url(#c933322db5)"><path fill="#a1c8d4" d="M 292.074219 146.488281 L 605.855469 146.488281 L 605.855469 321.765625 L 292.074219 321.765625 Z M 292.074219 146.488281 " fill-opacity="1" fill-rule="nonzero"/></g></g><g clip-path="url(#4b31c65ef8)"><g clip-path="url(#436d748240)"><path fill="#a1c8d4" d="M 292.074219 146.488281 L 605.855469 146.488281 L 605.855469 321.765625 L 292.074219 321.765625 Z M 292.074219 146.488281 " fill-opacity="1" fill-rule="nonzero"/></g></g><g clip-path="url(#cc3dda4ce5)"><g clip-path="url(#d97e221d29)"><path fill="#a1c8d4" d="M 292.074219 146.488281 L 605.855469 146.488281 L 605.855469 321.765625 L 292.074219 321.765625 Z M 292.074219 146.488281 " fill-opacity="1" fill-rule="nonzero"/></g></g><g clip-path="url(#e9a00b792b)"><g clip-path="url(#ba9ae0902a)"><path fill="#a1c8d4" d="M 292.074219 146.488281 L 605.855469 146.488281 L 605.855469 321.765625 L 292.074219 321.765625 Z M 292.074219 146.488281 " fill-opacity="1" fill-rule="nonzero"/></g></g><g clip-path="url(#5eff717508)"><g clip-path="url(#b851e66a19)"><path fill="#a1c8d4" d="M 292.074219 146.488281 L 605.855469 146.488281 L 605.855469 321.765625 L 292.074219 321.765625 Z M 292.074219 146.488281 " fill-opacity="1" fill-rule="nonzero"/></g></g><g clip-path="url(#cdd0cb25cc)"><g clip-path="url(#dbf10fc39e)"><path fill="#a1c8d4" d="M 292.074219 146.488281 L 605.855469 146.488281 L 605.855469 321.765625 L 292.074219 321.765625 Z M 292.074219 146.488281 " fill-opacity="1" fill-rule="nonzero"/></g></g><g clip-path="url(#cdb0369240)"><g clip-path="url(#63e97d4971)"><path fill="#a1c8d4" d="M 292.074219 146.488281 L 605.855469 146.488281 L 605.855469 321.765625 L 292.074219 321.765625 Z M 292.074219 146.488281 " fill-opacity="1" fill-rule="nonzero"/></g></g><g clip-path="url(#dbd887085a)"><g clip-path="url(#0086506ff9)"><path fill="#a1c8d4" d="M 292.074219 146.488281 L 605.855469 146.488281 L 605.855469 321.765625 L 292.074219 321.765625 Z M 292.074219 146.488281 " fill-opacity="1" fill-rule="nonzero"/></g></g><g clip-path="url(#87f601ac5d)"><g clip-path="url(#3881f03d01)"><path fill="#a1c8d4" d="M 292.074219 146.488281 L 605.855469 146.488281 L 605.855469 321.765625 L 292.074219 321.765625 Z M 292.074219 146.488281 " fill-opacity="1" fill-rule="nonzero"/></g></g><g clip-path="url(#e8af0425d9)"><g clip-path="url(#c5290a2e99)"><path fill="#a1c8d4" d="M 292.074219 146.488281 L 605.855469 146.488281 L 605.855469 321.765625 L 292.074219 321.765625 Z M 292.074219 146.488281 " fill-opacity="1" fill-rule="nonzero"/></g></g><g clip-path="url(#cb402cbc6a)"><g clip-path="url(#9780a7fc7e)"><path fill="#9a9999" d="M 292.074219 146.488281 L 605.855469 146.488281 L 605.855469 321.765625 L 292.074219 321.765625 Z M 292.074219 146.488281 " fill-opacity="1" fill-rule="nonzero"/></g></g></svg>