<svg xmlns="http://www.w3.org/2000/svg" xmlns:xlink="http://www.w3.org/1999/xlink" width="500" zoomAndPan="magnify" viewBox="0 0 375 374.999991" height="500" preserveAspectRatio="xMidYMid meet" version="1.0"><defs><clipPath id="1f32d01596"><path d="M 118.5 112.5 L 256 112.5 L 256 262.5 L 118.5 262.5 Z M 118.5 112.5 " clip-rule="nonzero"/></clipPath><clipPath id="afa1ac6213"><path d="M 27.277344 315.804688 L 124.058594 315.804688 L 124.058594 328.375 L 27.277344 328.375 Z M 27.277344 315.804688 " clip-rule="nonzero"/></clipPath><clipPath id="d62ad2d8c2"><path d="M 31.5 315.824219 C 91.425781 317.25 105.300781 318.226562 112.726562 319.199219 C 116.398438 319.648438 119.101562 320.023438 120.898438 320.699219 C 121.949219 321 122.550781 321.226562 123.074219 321.898438 C 123.675781 322.726562 124.050781 324.523438 123.898438 325.5 C 123.75 326.324219 123.148438 327.074219 122.550781 327.523438 C 121.875 328.050781 120.976562 328.351562 120.148438 328.351562 C 119.398438 328.351562 118.425781 328.125 117.824219 327.601562 C 117.074219 326.925781 116.25 325.273438 116.25 324.300781 C 116.25 323.476562 116.550781 322.574219 117.148438 321.976562 C 117.824219 321.300781 119.476562 320.476562 120.523438 320.625 C 121.574219 320.699219 123 321.75 123.523438 322.648438 C 123.976562 323.324219 124.125 324.300781 123.976562 325.050781 C 123.824219 325.875 123.375 326.699219 122.851562 327.300781 C 122.25 327.824219 121.574219 328.199219 120.601562 328.351562 C 118.726562 328.574219 115.949219 327.074219 112.199219 326.550781 C 104.851562 325.5 91.273438 324.976562 79.125 324.601562 C 64.5 324.074219 36.226562 325.875 30.375 324 C 28.949219 323.550781 28.5 323.101562 27.976562 322.273438 C 27.449219 321.523438 27.226562 320.324219 27.300781 319.425781 C 27.449219 318.523438 28.050781 317.398438 28.726562 316.800781 C 29.398438 316.199219 31.5 315.824219 31.5 315.824219 " clip-rule="nonzero"/></clipPath><clipPath id="639ab4eb1f"><path d="M 0.277344 0.804688 L 97.058594 0.804688 L 97.058594 13.375 L 0.277344 13.375 Z M 0.277344 0.804688 " clip-rule="nonzero"/></clipPath><clipPath id="219581c9ed"><path d="M 4.5 0.824219 C 64.425781 2.25 78.300781 3.226562 85.726562 4.199219 C 89.398438 4.648438 92.101562 5.023438 93.898438 5.699219 C 94.949219 6 95.550781 6.226562 96.074219 6.898438 C 96.675781 7.726562 97.050781 9.523438 96.898438 10.5 C 96.75 11.324219 96.148438 12.074219 95.550781 12.523438 C 94.875 13.050781 93.976562 13.351562 93.148438 13.351562 C 92.398438 13.351562 91.425781 13.125 90.824219 12.601562 C 90.074219 11.925781 89.25 10.273438 89.25 9.300781 C 89.25 8.476562 89.550781 7.574219 90.148438 6.976562 C 90.824219 6.300781 92.476562 5.476562 93.523438 5.625 C 94.574219 5.699219 96 6.75 96.523438 7.648438 C 96.976562 8.324219 97.125 9.300781 96.976562 10.050781 C 96.824219 10.875 96.375 11.699219 95.851562 12.300781 C 95.25 12.824219 94.574219 13.199219 93.601562 13.351562 C 91.726562 13.574219 88.949219 12.074219 85.199219 11.550781 C 77.851562 10.5 64.273438 9.976562 52.125 9.601562 C 37.5 9.074219 9.226562 10.875 3.375 9 C 1.949219 8.550781 1.5 8.101562 0.976562 7.273438 C 0.449219 6.523438 0.226562 5.324219 0.300781 4.425781 C 0.449219 3.523438 1.050781 2.398438 1.726562 1.800781 C 2.398438 1.199219 4.5 0.824219 4.5 0.824219 " clip-rule="nonzero"/></clipPath><clipPath id="a498bb5de8"><rect x="0" width="98" y="0" height="14"/></clipPath></defs><rect x="-37.5" width="450" fill="#ffffff" y="-37.499999" height="449.999989" fill-opacity="1"/><rect x="-37.5" width="450" fill="#04e18d" y="-37.499999" height="449.999989" fill-opacity="1"/><g clip-path="url(#1f32d01596)"><path fill="#016b43" d="M 249.933594 151.820312 C 249.296875 170.070312 244.964844 195.667969 227.929688 213.996094 C 208.691406 234.6875 177.292969 242.25 134.574219 236.492188 C 141.914062 223.035156 150.113281 211.742188 159.632812 201.867188 C 174.074219 186.886719 191.648438 175.253906 213.355469 166.308594 C 214.207031 165.957031 214.613281 164.984375 214.261719 164.132812 C 213.910156 163.28125 212.9375 162.875 212.085938 163.226562 C 189.941406 172.351562 172 184.234375 157.234375 199.550781 C 148.175781 208.945312 140.304688 219.578125 133.222656 232.0625 C 133 229.109375 132.886719 225.261719 133.167969 220.839844 C 133.765625 211.445312 136.328125 197.445312 145.132812 184.082031 C 157.921875 164.675781 180.140625 151.683594 211.179688 145.460938 C 232.96875 141.09375 243.558594 131.625 248.574219 124.605469 C 249.441406 131.117188 250.3125 140.816406 249.933594 151.820312 Z M 252.851562 114.789062 C 252.554688 113.460938 251.382812 112.511719 250.019531 112.503906 C 250.015625 112.503906 250.011719 112.503906 250.003906 112.503906 C 248.648438 112.503906 247.472656 113.4375 247.164062 114.757812 C 247.121094 114.941406 242.488281 133.238281 210.03125 139.742188 C 177.371094 146.289062 153.878906 160.152344 140.210938 180.949219 C 130.6875 195.441406 127.949219 210.566406 127.332031 220.707031 C 126.773438 229.890625 127.777344 236.664062 128.164062 238.832031 C 125.035156 244.910156 122.003906 251.511719 119.148438 258.496094 C 118.535156 259.984375 119.25 261.6875 120.742188 262.300781 C 121.105469 262.445312 121.476562 262.515625 121.84375 262.515625 C 122.992188 262.515625 124.082031 261.832031 124.546875 260.703125 C 127.238281 254.132812 130.078125 247.910156 133.007812 242.167969 C 142.804688 243.519531 152.042969 244.195312 160.71875 244.195312 C 192.003906 244.195312 215.980469 235.417969 232.203125 217.964844 C 240.292969 209.261719 246.410156 198.382812 250.378906 185.632812 C 253.527344 175.519531 255.335938 164.210938 255.761719 152.023438 C 256.480469 131.34375 253 115.453125 252.851562 114.789062 " fill-opacity="1" fill-rule="nonzero"/></g><g clip-path="url(#afa1ac6213)"><g clip-path="url(#d62ad2d8c2)"><g transform="matrix(1, 0, 0, 1, 27, 315)"><g clip-path="url(#a498bb5de8)"><g clip-path="url(#639ab4eb1f)"><g clip-path="url(#219581c9ed)"><rect x="-109.5" width="540" fill="#04e18d" height="539.999987" y="-397.499998" fill-opacity="1"/></g></g></g></g></g></g></svg>