<svg xmlns="http://www.w3.org/2000/svg" xmlns:xlink="http://www.w3.org/1999/xlink" width="500" zoomAndPan="magnify" viewBox="0 0 375 374.999991" height="500" preserveAspectRatio="xMidYMid meet" version="1.0"><defs><clipPath id="f4583240c0"><path d="M 112.6875 56.25 L 262.6875 56.25 L 262.6875 318.75 L 112.6875 318.75 Z M 112.6875 56.25 " clip-rule="nonzero"/></clipPath><clipPath id="ffd48df220"><path d="M 32.222656 223.847656 L 80.59375 223.847656 L 80.59375 291.441406 L 32.222656 291.441406 Z M 32.222656 223.847656 " clip-rule="nonzero"/></clipPath><clipPath id="48b24eb954"><path d="M 41.023438 228.300781 C 41.773438 241.273438 52.125 255.898438 57.601562 265.050781 C 62.324219 272.925781 70.199219 282.675781 71.101562 286.574219 C 71.398438 287.773438 71.25 288.523438 70.875 289.273438 C 70.5 290.023438 69.601562 290.773438 68.851562 291.148438 C 68.25 291.375 67.648438 291.449219 67.050781 291.375 C 66.300781 291.300781 65.476562 291.148438 64.574219 290.175781 C 61.351562 286.5 56.476562 263.476562 52.574219 254.25 C 49.949219 248.101562 45.75 242.023438 45 239.324219 C 44.773438 238.425781 44.699219 238.125 44.851562 237.449219 C 45.074219 236.699219 45.601562 235.574219 46.273438 235.050781 C 46.949219 234.523438 48.148438 234.226562 48.976562 234.226562 C 49.574219 234.148438 50.023438 234.300781 50.773438 234.75 C 52.125 235.574219 53.851562 237.375 56.023438 240.074219 C 60.976562 246.226562 73.726562 268.425781 77.625 272.550781 C 78.75 273.75 79.648438 273.675781 80.175781 274.5 C 80.550781 275.25 80.625 276.300781 80.398438 277.125 C 80.25 277.949219 79.648438 278.851562 79.050781 279.375 C 78.375 279.898438 77.398438 280.351562 76.574219 280.351562 C 75.449219 280.351562 73.726562 279.601562 73.050781 278.699219 C 72.300781 277.800781 72 275.925781 72.449219 274.800781 C 72.824219 273.75 74.175781 272.476562 75.300781 272.175781 C 76.351562 271.875 78.226562 272.324219 79.050781 273.074219 C 79.949219 273.824219 80.625 275.550781 80.476562 276.675781 C 80.324219 277.800781 79.273438 279.375 78.300781 279.898438 C 77.25 280.425781 75.898438 280.648438 74.398438 279.824219 C 69.226562 277.125 55.425781 252 50.324219 245.625 C 48.148438 242.925781 46.199219 241.800781 45.375 240.226562 C 44.925781 239.25 44.699219 238.351562 44.851562 237.449219 C 45 236.625 45.601562 235.574219 46.273438 235.050781 C 46.949219 234.523438 48.074219 234.074219 48.976562 234.226562 C 49.949219 234.300781 51 234.898438 52.125 236.023438 C 54.449219 238.648438 56.925781 245.476562 59.398438 251.851562 C 63.148438 261.148438 70.5 281.476562 71.101562 286.574219 C 71.25 287.925781 71.25 288.523438 70.875 289.273438 C 70.351562 290.101562 68.925781 291.148438 67.949219 291.375 C 67.125 291.523438 66.148438 291.226562 65.324219 290.773438 C 64.351562 290.25 63.898438 289.648438 62.699219 288.148438 C 57.976562 282.148438 35.625 248.851562 32.851562 240.226562 C 31.875 237.300781 32.324219 236.175781 32.476562 234 C 32.550781 231.449219 32.773438 227.324219 33.75 225.75 C 34.273438 224.773438 35.175781 224.324219 36 224.101562 C 36.898438 223.875 38.023438 223.949219 38.851562 224.324219 C 39.601562 224.773438 40.425781 225.675781 40.726562 226.425781 C 41.023438 227.023438 41.023438 228.300781 41.023438 228.300781 " clip-rule="nonzero"/></clipPath><clipPath id="09782cdbd1"><path d="M 0.222656 0.847656 L 48.59375 0.847656 L 48.59375 68.441406 L 0.222656 68.441406 Z M 0.222656 0.847656 " clip-rule="nonzero"/></clipPath><clipPath id="f0285c99a2"><path d="M 9.023438 5.300781 C 9.773438 18.273438 20.125 32.898438 25.601562 42.050781 C 30.324219 49.925781 38.199219 59.675781 39.101562 63.574219 C 39.398438 64.773438 39.25 65.523438 38.875 66.273438 C 38.5 67.023438 37.601562 67.773438 36.851562 68.148438 C 36.25 68.375 35.648438 68.449219 35.050781 68.375 C 34.300781 68.300781 33.476562 68.148438 32.574219 67.175781 C 29.351562 63.5 24.476562 40.476562 20.574219 31.25 C 17.949219 25.101562 13.75 19.023438 13 16.324219 C 12.773438 15.425781 12.699219 15.125 12.851562 14.449219 C 13.074219 13.699219 13.601562 12.574219 14.273438 12.050781 C 14.949219 11.523438 16.148438 11.226562 16.976562 11.226562 C 17.574219 11.148438 18.023438 11.300781 18.773438 11.75 C 20.125 12.574219 21.851562 14.375 24.023438 17.074219 C 28.976562 23.226562 41.726562 45.425781 45.625 49.550781 C 46.75 50.75 47.648438 50.675781 48.175781 51.5 C 48.550781 52.25 48.625 53.300781 48.398438 54.125 C 48.25 54.949219 47.648438 55.851562 47.050781 56.375 C 46.375 56.898438 45.398438 57.351562 44.574219 57.351562 C 43.449219 57.351562 41.726562 56.601562 41.050781 55.699219 C 40.300781 54.800781 40 52.925781 40.449219 51.800781 C 40.824219 50.75 42.175781 49.476562 43.300781 49.175781 C 44.351562 48.875 46.226562 49.324219 47.050781 50.074219 C 47.949219 50.824219 48.625 52.550781 48.476562 53.675781 C 48.324219 54.800781 47.273438 56.375 46.300781 56.898438 C 45.25 57.425781 43.898438 57.648438 42.398438 56.824219 C 37.226562 54.125 23.425781 29 18.324219 22.625 C 16.148438 19.925781 14.199219 18.800781 13.375 17.226562 C 12.925781 16.25 12.699219 15.351562 12.851562 14.449219 C 13 13.625 13.601562 12.574219 14.273438 12.050781 C 14.949219 11.523438 16.074219 11.074219 16.976562 11.226562 C 17.949219 11.300781 19 11.898438 20.125 13.023438 C 22.449219 15.648438 24.925781 22.476562 27.398438 28.851562 C 31.148438 38.148438 38.5 58.476562 39.101562 63.574219 C 39.25 64.925781 39.25 65.523438 38.875 66.273438 C 38.351562 67.101562 36.925781 68.148438 35.949219 68.375 C 35.125 68.523438 34.148438 68.226562 33.324219 67.773438 C 32.351562 67.25 31.898438 66.648438 30.699219 65.148438 C 25.976562 59.148438 3.625 25.851562 0.851562 17.226562 C -0.125 14.300781 0.324219 13.175781 0.476562 11 C 0.550781 8.449219 0.773438 4.324219 1.75 2.75 C 2.273438 1.773438 3.175781 1.324219 4 1.101562 C 4.898438 0.875 6.023438 0.949219 6.851562 1.324219 C 7.601562 1.773438 8.425781 2.675781 8.726562 3.425781 C 9.023438 4.023438 9.023438 5.300781 9.023438 5.300781 " clip-rule="nonzero"/></clipPath><clipPath id="e68e0e85d0"><rect x="0" width="49" y="0" height="69"/></clipPath></defs><rect x="-37.5" width="450" fill="#ffffff" y="-37.499999" height="449.999989" fill-opacity="1"/><rect x="-37.5" width="450" fill="#ffda67" y="-37.499999" height="449.999989" fill-opacity="1"/><g clip-path="url(#f4583240c0)"><path fill="#ad8330" d="M 146.269531 318.4375 C 145.332031 318.4375 144.390625 318.1875 143.546875 317.667969 C 141.398438 316.359375 140.476562 313.703125 141.363281 311.347656 L 177.609375 214.699219 L 117.433594 208.914062 C 115.566406 208.734375 113.9375 207.570312 113.160156 205.867188 C 112.386719 204.15625 112.582031 202.164062 113.671875 200.640625 L 215.324219 58.773438 C 216.824219 56.683594 219.617188 55.988281 221.917969 57.128906 C 224.222656 58.273438 225.359375 60.914062 224.597656 63.375 L 191.625 170.183594 L 258.25 185.703125 C 260.0625 186.125 261.511719 187.472656 262.066406 189.246094 C 262.621094 191.019531 262.195312 192.953125 260.949219 194.332031 L 150.160156 316.710938 C 149.136719 317.84375 147.714844 318.4375 146.269531 318.4375 Z M 127.5 199.347656 L 185.417969 204.917969 C 187.039062 205.070312 188.5 205.972656 189.367188 207.359375 C 190.234375 208.746094 190.402344 210.449219 189.828125 211.976562 L 160.839844 289.289062 L 247.191406 193.902344 L 183.761719 179.128906 C 182.347656 178.796875 181.128906 177.894531 180.40625 176.632812 C 179.683594 175.371094 179.511719 173.863281 179.941406 172.472656 L 205.058594 91.109375 Z M 127.5 199.347656 " fill-opacity="1" fill-rule="nonzero"/></g><g clip-path="url(#ffd48df220)"><g clip-path="url(#48b24eb954)"><g transform="matrix(1, 0, 0, 1, 32, 223)"><g clip-path="url(#e68e0e85d0)"><g clip-path="url(#09782cdbd1)"><g clip-path="url(#f0285c99a2)"><rect x="-114.5" width="540" fill="#ffda67" height="539.999987" y="-305.499998" fill-opacity="1"/></g></g></g></g></g></g></svg>