<svg xmlns="http://www.w3.org/2000/svg" xmlns:xlink="http://www.w3.org/1999/xlink" width="500" zoomAndPan="magnify" viewBox="0 0 375 374.999991" height="500" preserveAspectRatio="xMidYMid meet" version="1.0"><defs><clipPath id="fa3851314e"><path d="M 112.5 112.5 L 262.5 112.5 L 262.5 262.5 L 112.5 262.5 Z M 112.5 112.5 " clip-rule="nonzero"/></clipPath></defs><rect x="-37.5" width="450" fill="#ffffff" y="-37.499999" height="449.999989" fill-opacity="1"/><rect x="-37.5" width="450" fill="#8cb3bf" y="-37.499999" height="449.999989" fill-opacity="1"/><g clip-path="url(#fa3851314e)"><path fill="#c7ebf8" d="M 187.5 126.136719 C 153.609375 126.136719 126.136719 153.609375 126.136719 187.5 C 126.136719 221.390625 153.609375 248.863281 187.5 248.863281 C 221.390625 248.863281 248.863281 221.390625 248.863281 187.5 C 248.863281 153.609375 221.390625 126.136719 187.5 126.136719 Z M 112.5 187.5 C 112.5 146.078125 146.078125 112.5 187.5 112.5 C 228.921875 112.5 262.5 146.078125 262.5 187.5 C 262.5 228.921875 228.921875 262.5 187.5 262.5 C 146.078125 262.5 112.5 228.921875 112.5 187.5 Z M 112.5 187.5 " fill-opacity="1" fill-rule="evenodd"/></g><path fill="#c7ebf8" d="M 162.957031 170.453125 C 162.957031 159.15625 172.113281 150 183.410156 150 L 204.546875 150 L 204.546875 163.636719 L 183.410156 163.636719 C 179.644531 163.636719 176.59375 166.6875 176.59375 170.453125 L 176.59375 173.863281 C 176.59375 177.628906 179.644531 180.683594 183.410156 180.683594 L 191.59375 180.683594 C 202.890625 180.683594 212.046875 189.839844 212.046875 201.136719 L 212.046875 204.546875 C 212.046875 215.84375 202.890625 225 191.59375 225 L 170.457031 225 L 170.457031 211.363281 L 191.59375 211.363281 C 195.359375 211.363281 198.410156 208.3125 198.410156 204.546875 L 198.410156 201.136719 C 198.410156 197.371094 195.359375 194.316406 191.59375 194.316406 L 183.410156 194.316406 C 172.113281 194.316406 162.957031 185.160156 162.957031 173.863281 Z M 162.957031 170.453125 " fill-opacity="1" fill-rule="evenodd"/><path fill="#c7ebf8" d="M 180.683594 141.816406 L 194.316406 141.816406 L 194.316406 156.816406 L 180.683594 156.816406 Z M 180.683594 141.816406 " fill-opacity="1" fill-rule="evenodd"/><path fill="#c7ebf8" d="M 180.683594 218.183594 L 194.316406 218.183594 L 194.316406 233.183594 L 180.683594 233.183594 Z M 180.683594 218.183594 " fill-opacity="1" fill-rule="evenodd"/></svg>