<svg xmlns="http://www.w3.org/2000/svg" xmlns:xlink="http://www.w3.org/1999/xlink" width="500" zoomAndPan="magnify" viewBox="0 0 375 374.999991" height="500" preserveAspectRatio="xMidYMid meet" version="1.0"><defs><clipPath id="7a21c36ff4"><path d="M 118.5 112.5 L 256 112.5 L 256 262.5 L 118.5 262.5 Z M 118.5 112.5 " clip-rule="nonzero"/></clipPath><clipPath id="35f8331cee"><path d="M 33.195312 91.898438 L 137.203125 91.898438 L 137.203125 119.601562 L 33.195312 119.601562 Z M 33.195312 91.898438 " clip-rule="nonzero"/></clipPath><clipPath id="9c80338db1"><path d="M 38.101562 101.925781 C 67.273438 110.175781 73.273438 113.25 81.898438 112.351562 C 95.398438 111 126.449219 93.523438 132.300781 92.25 C 133.5 91.949219 133.800781 91.875 134.550781 92.101562 C 135.375 92.398438 136.5 93.523438 136.875 94.351562 C 137.175781 95.023438 137.101562 95.851562 136.875 96.523438 C 136.648438 97.199219 136.199219 97.875 135.523438 98.25 C 134.773438 98.699219 133.199219 99 132.375 98.625 C 131.476562 98.324219 130.425781 97.125 130.273438 96.226562 C 130.050781 95.25 130.574219 93.75 131.101562 93.074219 C 131.550781 92.476562 132.375 92.175781 133.050781 92.023438 C 133.726562 91.949219 134.550781 92.023438 135.226562 92.398438 C 135.976562 92.851562 136.875 94.199219 137.023438 95.023438 C 137.175781 95.773438 136.949219 96.601562 136.574219 97.199219 C 136.199219 97.800781 135.898438 98.023438 134.925781 98.625 C 130.273438 101.476562 102.300781 112.351562 92.625 115.875 C 87.675781 117.675781 85.800781 119.101562 81.226562 119.476562 C 74.925781 119.851562 65.550781 117.226562 57.976562 115.5 C 50.476562 113.851562 39.601562 111.300781 36 109.199219 C 34.574219 108.375 33.824219 107.625 33.449219 106.726562 C 33.148438 105.898438 33.226562 104.773438 33.523438 104.023438 C 33.898438 103.273438 34.648438 102.449219 35.398438 102.074219 C 36.226562 101.773438 38.101562 101.925781 38.101562 101.925781 " clip-rule="nonzero"/></clipPath><clipPath id="15d8fae452"><path d="M 0.195312 0.898438 L 104.203125 0.898438 L 104.203125 28.601562 L 0.195312 28.601562 Z M 0.195312 0.898438 " clip-rule="nonzero"/></clipPath><clipPath id="044276b3bc"><path d="M 5.101562 10.925781 C 34.273438 19.175781 40.273438 22.25 48.898438 21.351562 C 62.398438 20 93.449219 2.523438 99.300781 1.25 C 100.5 0.949219 100.800781 0.875 101.550781 1.101562 C 102.375 1.398438 103.5 2.523438 103.875 3.351562 C 104.175781 4.023438 104.101562 4.851562 103.875 5.523438 C 103.648438 6.199219 103.199219 6.875 102.523438 7.25 C 101.773438 7.699219 100.199219 8 99.375 7.625 C 98.476562 7.324219 97.425781 6.125 97.273438 5.226562 C 97.050781 4.25 97.574219 2.75 98.101562 2.074219 C 98.550781 1.476562 99.375 1.175781 100.050781 1.023438 C 100.726562 0.949219 101.550781 1.023438 102.226562 1.398438 C 102.976562 1.851562 103.875 3.199219 104.023438 4.023438 C 104.175781 4.773438 103.949219 5.601562 103.574219 6.199219 C 103.199219 6.800781 102.898438 7.023438 101.925781 7.625 C 97.273438 10.476562 69.300781 21.351562 59.625 24.875 C 54.675781 26.675781 52.800781 28.101562 48.226562 28.476562 C 41.925781 28.851562 32.550781 26.226562 24.976562 24.5 C 17.476562 22.851562 6.601562 20.300781 3 18.199219 C 1.574219 17.375 0.824219 16.625 0.449219 15.726562 C 0.148438 14.898438 0.226562 13.773438 0.523438 13.023438 C 0.898438 12.273438 1.648438 11.449219 2.398438 11.074219 C 3.226562 10.773438 5.101562 10.925781 5.101562 10.925781 " clip-rule="nonzero"/></clipPath><clipPath id="4fda4928bb"><rect x="0" width="105" y="0" height="29"/></clipPath></defs><rect x="-37.5" width="450" fill="#ffffff" y="-37.499999" height="449.999989" fill-opacity="1"/><rect x="-37.5" width="450" fill="#00a868" y="-37.499999" height="449.999989" fill-opacity="1"/><g clip-path="url(#7a21c36ff4)"><path fill="#016b43" d="M 249.933594 151.820312 C 249.296875 170.070312 244.964844 195.667969 227.929688 213.996094 C 208.691406 234.6875 177.292969 242.25 134.574219 236.492188 C 141.914062 223.035156 150.113281 211.742188 159.632812 201.867188 C 174.074219 186.886719 191.648438 175.253906 213.355469 166.308594 C 214.207031 165.957031 214.613281 164.984375 214.261719 164.132812 C 213.910156 163.28125 212.9375 162.875 212.085938 163.226562 C 189.941406 172.351562 172 184.234375 157.234375 199.550781 C 148.175781 208.945312 140.304688 219.578125 133.222656 232.0625 C 133 229.109375 132.886719 225.261719 133.167969 220.839844 C 133.765625 211.445312 136.328125 197.445312 145.132812 184.082031 C 157.921875 164.675781 180.140625 151.683594 211.179688 145.460938 C 232.96875 141.09375 243.558594 131.625 248.574219 124.605469 C 249.441406 131.117188 250.3125 140.816406 249.933594 151.820312 Z M 252.851562 114.789062 C 252.554688 113.460938 251.382812 112.511719 250.019531 112.503906 C 250.015625 112.503906 250.011719 112.503906 250.003906 112.503906 C 248.648438 112.503906 247.472656 113.4375 247.164062 114.757812 C 247.121094 114.941406 242.488281 133.238281 210.03125 139.742188 C 177.371094 146.289062 153.878906 160.152344 140.210938 180.949219 C 130.6875 195.441406 127.949219 210.566406 127.332031 220.707031 C 126.773438 229.890625 127.777344 236.664062 128.164062 238.832031 C 125.035156 244.910156 122.003906 251.511719 119.148438 258.496094 C 118.535156 259.984375 119.25 261.6875 120.742188 262.300781 C 121.105469 262.445312 121.476562 262.515625 121.84375 262.515625 C 122.992188 262.515625 124.082031 261.832031 124.546875 260.703125 C 127.238281 254.132812 130.078125 247.910156 133.007812 242.167969 C 142.804688 243.519531 152.042969 244.195312 160.71875 244.195312 C 192.003906 244.195312 215.980469 235.417969 232.203125 217.964844 C 240.292969 209.261719 246.410156 198.382812 250.378906 185.632812 C 253.527344 175.519531 255.335938 164.210938 255.761719 152.023438 C 256.480469 131.34375 253 115.453125 252.851562 114.789062 " fill-opacity="1" fill-rule="nonzero"/></g><g clip-path="url(#35f8331cee)"><g clip-path="url(#9c80338db1)"><g transform="matrix(1, 0, 0, 1, 33, 91)"><g clip-path="url(#4fda4928bb)"><g clip-path="url(#15d8fae452)"><g clip-path="url(#044276b3bc)"><rect x="-115.5" width="540" fill="#00a868" height="539.999987" y="-173.499998" fill-opacity="1"/></g></g></g></g></g></g></svg>